<svg version="1.1" xmlns="http://www.w3.org/2000/svg" width="27" height="32" viewBox="0 0 27 32">
<title>cupcake-icon</title>
<path fill="#ff5e3a" d="M5.349 32h3.984v-2.667h-1.671l-0.933-6.541 12.959-0.063 0.312-0.063h-15.979z"></path>
<path fill="#ff5e3a" d="M20 22.667l-0.963 6.667h-1.704v2.667h4.016l1.339-9.333z"></path>
<path fill="#ff5e3a" d="M25 12.908c-0.921-2.695-3.583-4.743-7.667-4.891v2.673c2.639 0.121 4.513 1.237 5.143 3.080 0.157 0.457 0.435 0.864 0.805 1.176 0.451 0.379 0.719 1.028 0.719 1.737 0 0.649-0.232 1.251-0.635 1.648-0.377 0.372-0.636 0.849-0.74 1.368-0.195 0.957-1.133 1.651-2.203 1.652-0.375-0.047-1.288-0.669-1.587-0.873-0.447-0.305-0.972-0.464-1.503-0.464-0.173 0-0.347 0.017-0.519 0.051-0.7 0.139-1.317 0.553-1.709 1.151-0.605 0.919-1.267 1.468-1.772 1.468-0.596 0-1.305-0.757-1.771-1.467-0.392-0.597-1.008-1.013-1.709-1.152-0.173-0.033-0.347-0.049-0.52-0.049-0.531 0-1.055 0.159-1.5 0.463-0.301 0.204-1.216 0.828-1.557 0.873-1.101 0-2.040-0.695-2.233-1.651-0.105-0.52-0.363-0.996-0.74-1.368-0.405-0.4-0.636-1-0.636-1.649 0-0.709 0.268-1.359 0.717-1.736 0.371-0.312 0.649-0.719 0.805-1.177 0.588-1.716 2.545-2.885 5.144-3.079v-2.675c-3.924 0.225-6.751 2.212-7.667 4.891-1.005 0.847-1.667 2.217-1.667 3.776 0 1.428 0.561 2.691 1.427 3.545 0.436 2.157 2.437 3.789 4.848 3.789 1.073 0 2.248-0.784 3.059-1.336 0.871 1.327 2.227 2.669 4 2.669s3.128-1.343 4-2.669c0.809 0.552 1.984 1.336 3.059 1.336 2.411 0 4.412-1.632 4.848-3.789 0.865-0.856 1.427-2.117 1.427-3.545 0-1.559-0.661-2.929-1.667-3.776z"></path>
<path fill="#ff5e3a" d="M12 29.333h2.667v2.667h-2.667v-2.667z"></path>
<path fill="#ff5e3a" d="M12 13.332h2.667v-8h-2.667v8zM13.333 0c-0.737 0-1.333 0.596-1.333 1.332v1.333c0 0.736 0.596 1.333 1.333 1.333s1.333-0.597 1.333-1.333v-1.333c0-0.736-0.596-1.332-1.333-1.332z"></path>
</svg>
