<svg version="1.1" xmlns="http://www.w3.org/2000/svg" viewBox="0 0 36 32">
<title>heart-icon</title>
<path  fill="#ff5e3a" d="M23.111 21.333h3.556v3.556h-3.556v-3.556z"></path>
<path  fill="#ff5e3a"  d="M32.512 2.997c-2.014-2.011-4.263-3.006-7.006-3.006-2.62 0-5.545 2.089-7.728 4.304-2.254-2.217-5.086-4.295-7.797-4.295-2.652 0-4.99 0.793-6.937 2.738-4.057 4.043-4.057 10.599 0 14.647 1.157 1.157 12.402 13.657 12.402 13.657 0.64 0.638 1.481 0.958 2.32 0.958s1.678-0.32 2.318-0.958l1.863-2.012-2.523-2.507-1.655 1.787c-2.078-2.311-11.095-12.324-12.213-13.442-1.291-1.285-2-2.994-2-4.811 0-1.813 0.709-3.518 2-4.804 1.177-1.175 2.54-1.698 4.425-1.698 0.464 0 2.215 0.236 5.303 3.273l2.533 2.492 2.492-2.532c2.208-2.242 4.201-3.244 5.196-3.244 1.769 0 3.113 0.588 4.496 1.97 1.289 1.284 1.998 2.99 1.998 4.804 0 1.815-0.709 3.522-1.966 4.775-0.087 0.085-0.098 0.094-1.9 2.041l-0.156 0.167 2.523 2.51 0.24-0.26c0 0 1.742-1.881 1.774-1.911 4.055-4.043 4.055-10.603-0.002-14.644z"></path>
</svg>
