<!-- Generated by IcoMoon.io -->
<svg version="1.1" xmlns="http://www.w3.org/2000/svg" width="37" height="32" viewBox="0 0 37 32">
<title>like-post-icon</title>
<path style="fill:#444444;" d="M33.449 2.994c-2.066-2.009-4.377-3.006-7.191-3.006-2.69 0-5.691 2.089-7.934 4.306-2.311-2.217-5.221-4.295-8.002-4.295-2.722 0-5.122 0.793-7.12 2.736-4.165 4.043-4.165 10.601 0 14.649 1.189 1.154 12.729 13.655 12.729 13.655 0.656 0.64 1.52 0.96 2.379 0.96 0.862 0 1.721-0.32 2.382-0.96l1.726-1.815-3.237-3.234-0.857 0.905c-3.122-3.381-10.862-11.744-11.936-12.789-1.122-1.090-1.739-2.528-1.737-4.050 0-1.52 0.617-2.955 1.739-4.046 1.024-0.997 2.238-1.44 3.931-1.44 0.777 0 2.512 0.791 4.839 3.022l3.214 3.081 3.163-3.131c2.215-2.19 4.037-2.985 4.718-2.985 1.573 0 2.77 0.512 4.007 1.714 1.12 1.088 1.737 2.523 1.737 4.046s-0.617 2.958-1.669 3.982c-0.13 0.121-0.135 0.123-2.037 2.123l-0.187 0.199 3.23 3.237 0.046-0.048 0.242-0.258c0 0 1.79-1.881 1.824-1.911 4.162-4.043 4.162-10.603 0-14.647z"></path>
<path style="fill:#444444;"  d="M22.889 20.578h4.571v4.571h-4.571v-4.571z"></path>
</svg>
