<svg version="1.1" xmlns="http://www.w3.org/2000/svg" width="32" height="32" viewBox="0 0 32 32">
<title>star-icon</title>
<path fill="#ff5e3a" d="M24.029 27.192h3.2v3.2h-3.2v-3.2z"></path>
<path fill="#ff5e3a" d="M31.88 11.91c-0.275-0.826-0.984-1.43-1.837-1.562l-8.309-1.28-3.611-7.763c-0.379-0.816-1.194-1.336-2.090-1.336-0.893 0-1.707 0.522-2.086 1.336l-3.613 7.763-8.309 1.28c-0.854 0.131-1.563 0.736-1.838 1.562-0.275 0.827-0.067 1.739 0.536 2.36l6.088 6.298-1.413 8.731c-0.142 0.88 0.226 1.762 0.947 2.277 0.397 0.28 0.862 0.424 1.328 0.424 0.384 0 0.766-0.098 1.115-0.291l7.243-4.037 4.768 2.656v-3.662l-4.768-2.658-7.184 4.005 1.378-8.517-1.114-1.154-4.922-5.090 8.323-1.282 0.723-1.552 2.798-6.014 3.52 7.566 8.326 1.283-6.038 6.243 0.733 4.53h3.242l-0.56-3.458 6.091-6.298c0.6-0.622 0.806-1.534 0.531-2.362z"></path>
</svg>
