<svg id="Group_5" data-name="Group 5" xmlns="http://www.w3.org/2000/svg" width="22.717" height="24.299" viewBox="0 0 22.717 24.299">
  <path id="happy-faces-icon" d="M9.238,5.357A9.238,9.238,0,0,0,6.472,23.413V21.454a7.4,7.4,0,1,1,5.546,0v1.952A9.238,9.238,0,0,0,9.238,5.357Zm-2.766,7.4H4.623V14.6H6.472Zm5.546,0V14.6h1.849V12.753Zm-5.555,3.8c0,.971,1.24,1.752,2.77,1.752s2.773-.785,2.773-1.752v-.1H6.465v.1Zm1.857,7.3H10.17V22H8.321Z" transform="translate(0.01 0.449)" fill="#fff"/>
  <path id="Path_3" data-name="Path 3" d="M1173.86,470.458h8.514" transform="translate(-1159.657 -466.604)" fill="none" stroke="#fff" stroke-width="2"/>
  <path id="Path_4" data-name="Path 4" d="M1178.71,465.873V473.8" transform="translate(-1160.431 -465.873)" fill="none" stroke="#fff" stroke-width="2"/>
</svg>
