<?xml version="1.0" encoding="utf-8"?>
<!-- Generator: Adobe Illustrator 23.0.0, SVG Export Plug-In . SVG Version: 6.00 Build 0)  -->
<svg version="1.1" xmlns="http://www.w3.org/2000/svg" xmlns:xlink="http://www.w3.org/1999/xlink" x="0px" y="0px"
	 viewBox="0 0 165.3 175.37" style="enable-background:new 0 0 165.3 175.37;" xml:space="preserve">
<style type="text/css">
	.st0{fill:#3B5999;}
	.st1{fill:#FFFFFF;}
</style>
<g id="Background">
</g>
<g id="Logo">
	<path class="st0" d="M157.71,175.37H7.59c-4.19,0-7.59-3.4-7.59-7.59V7.59C0,3.4,3.4,0,7.59,0h150.12c4.19,0,7.59,3.4,7.59,7.59
		v160.19C165.3,171.97,161.9,175.37,157.71,175.37z"/>
	<g>
		<path class="st1" d="M101.41,187.98c-12.72,0-30.96-3.12-42.48-6.96l5.52-25.68c9.6,2.88,22.32,5.28,35.28,5.28
			c10.32,0,12-2.88,12-9.84c0-7.44-0.24-8.4-18.96-12.96c-28.32-6.96-30.96-14.64-30.96-36.48c0-24.72,9.6-35.04,44.64-35.04
			c8.88,0,25.2,1.2,35.52,3.84l-3.12,26.88c-10.32-1.92-23.04-3.36-32.16-3.36c-10.08,0-12.48,2.64-12.48,7.92
			c0,7.2,0.96,8.16,14.88,11.28c33.36,7.44,35.76,14.64,35.76,37.92C144.85,174.78,134.77,187.98,101.41,187.98z"/>
	</g>
</g>
<g id="Name">
	<rect x="-265.5" y="212.67" style="fill:none;" width="696.3" height="143.41"/>
	<text transform="matrix(1 0 0 1 -265.4958 353.8687)" class="st0" style="font-family:'Klavika-Bold'; font-size:200px;">sidekick</text>
</g>
</svg>
